# Exported from Wings 3D 1.5.3
mtllib glider.mtl
o Cube1
#60 vertices, 58 faces
v -4.4798223e-2 -4.5536823e-2 -0.10499898
v -4.4798223e-2 -4.5536823e-2 0.25338681
v -4.4798223e-2 4.4059623e-2 -0.10499898
v -4.4798223e-2 4.4059623e-2 0.25338681
v 4.4798223e-2 -4.5536823e-2 -0.10499898
v 4.4798223e-2 -4.5536823e-2 0.25338681
v 4.4798223e-2 4.4059623e-2 -0.10499898
v 4.4798223e-2 4.4059623e-2 0.25338681
v -1.1199556e-2 1.0460956e-2 0.52217614
v -1.1199556e-2 -1.1938156e-2 0.52217614
v 1.1199556e-2 -1.1938156e-2 0.52217614
v 1.1199556e-2 1.0460956e-2 0.52217614
v 4.4798223e-2 -1.1938156e-2 0.21978814
v 4.4798223e-2 -1.1938156e-2 -7.1400309e-2
v 4.4798223e-2 1.0460956e-2 -7.1400309e-2
v 4.4798223e-2 1.0460956e-2 0.21978814
v -4.4798223e-2 -1.1938156e-2 -7.1400309e-2
v -4.4798223e-2 -1.1938156e-2 0.21978814
v -4.4798223e-2 1.0460956e-2 0.21978814
v -4.4798223e-2 1.0460956e-2 -7.1400309e-2
v -0.76156979 -1.1938156e-2 -9.0193163e-2
v -0.76156979 -1.1938156e-2 -3.0208343e-2
v -0.76156979 1.0460956e-2 -3.0208343e-2
v -0.76156979 1.0460956e-2 -9.0193163e-2
v 0.76156979 -1.1938156e-2 -3.0208343e-2
v 0.76156979 -1.1938156e-2 -9.0193163e-2
v 0.76156979 1.0460956e-2 -9.0193163e-2
v 0.76156979 1.0460956e-2 -3.0208343e-2
v -1.1199556e-2 -1.1938156e-2 -0.55298120
v -1.1199556e-2 1.0460956e-2 -0.55298120
v 1.1199556e-2 1.0460956e-2 -0.55298120
v 1.1199556e-2 -1.1938156e-2 -0.55298120
v -1.1199556e-2 -1.1938156e-2 -0.73217410
v -1.1199556e-2 1.0460956e-2 -0.73217410
v 1.1199556e-2 1.0460956e-2 -0.73217410
v 1.1199556e-2 -1.1938156e-2 -0.73217410
v -1.1199556e-2 -3.5384890e-3 -0.56138087
v -1.1199556e-2 2.0612889e-3 -0.56138087
v -1.1199556e-2 2.0612889e-3 -0.72377443
v -1.1199556e-2 -3.5384890e-3 -0.72377443
v -2.7998889e-3 1.0460956e-2 -0.56138087
v 2.7998889e-3 1.0460956e-2 -0.56138087
v 2.7998889e-3 1.0460956e-2 -0.72377443
v -2.7998889e-3 1.0460956e-2 -0.72377443
v 1.1199556e-2 2.0612889e-3 -0.56138087
v 1.1199556e-2 -3.5384890e-3 -0.56138087
v 1.1199556e-2 -3.5384890e-3 -0.72377443
v 1.1199556e-2 2.0612889e-3 -0.72377443
v 0.19039245 2.0612889e-3 -0.71187490
v 0.19039245 -3.5384890e-3 -0.71187490
v 0.19039245 -3.5384890e-3 -0.75247329
v 0.19039245 2.0612889e-3 -0.75247329
v -2.7998889e-3 0.18965385 -0.71187490
v 2.7998889e-3 0.18965385 -0.71187490
v 2.7998889e-3 0.18965385 -0.75247329
v -2.7998889e-3 0.18965385 -0.75247329
v -0.19039245 -3.5384890e-3 -0.71187490
v -0.19039245 2.0612889e-3 -0.71187490
v -0.19039245 2.0612889e-3 -0.75247329
v -0.19039245 -3.5384890e-3 -0.75247329
vn -0.83145317 -0.55404313 -4.1494965e-2
vn -0.83040579 -0.55288952 6.8843313e-2
vn -0.83145317 0.55404313 -4.1494965e-2
vn -0.83040579 0.55288952 6.8843313e-2
vn 0.83145317 -0.55404313 -4.1494965e-2
vn 0.83040579 -0.55288952 6.8843313e-2
vn 0.83145317 0.55404313 -4.1494965e-2
vn 0.83040579 0.55288952 6.8843313e-2
vn -0.52836767 0.52836767 0.66457146
vn -0.52836767 -0.52836767 0.66457146
vn 0.52836767 -0.52836767 0.66457146
vn 0.52836767 0.52836767 0.66457146
vn 0.86110212 -0.36967882 0.34905688
vn 0.81293003 -0.41186242 -0.41172093
vn 0.81293003 0.41186242 -0.41172093
vn 0.86110212 0.36967882 0.34905688
vn -0.81293003 -0.41186242 -0.41172093
vn -0.86110212 -0.36967882 0.34905688
vn -0.86110212 0.36967882 0.34905688
vn -0.81293003 0.41186242 -0.41172093
vn -0.56719525 -0.58246142 -0.58226132
vn -0.69497751 -0.52280479 0.49364097
vn -0.69497751 0.52280479 0.49364097
vn -0.56719525 0.58246142 -0.58226132
vn 0.69497751 -0.52280479 0.49364097
vn 0.56719525 -0.58246142 -0.58226132
vn 0.56719525 0.58246142 -0.58226132
vn 0.69497751 0.52280479 0.49364097
vn -0.83145317 -0.55404313 -4.1494965e-2
vn -0.70666690 0.70666690 -3.5267312e-2
vn 0.70666690 0.70666690 -3.5267312e-2
vn 0.83145317 -0.55404313 -4.1494965e-2
vn -0.81649658 -0.40824829 -0.40824829
vn -0.66666667 0.66666667 -0.33333333
vn 0.66666667 0.66666667 -0.33333333
vn 0.81649658 -0.40824829 -0.40824829
vn -0.90274224 -0.34154392 0.26154197
vn -0.90274224 0.34154392 0.26154197
vn -0.79501065 0.43163490 -0.42620344
vn -0.79501065 -0.43163490 -0.42620344
vn -0.34154392 0.90274224 0.26154197
vn 0.34154392 0.90274224 0.26154197
vn 0.43163490 0.79501065 -0.42620344
vn -0.43163490 0.79501065 -0.42620344
vn 0.90274224 0.34154392 0.26154197
vn 0.90274224 -0.34154392 0.26154197
vn 0.79501065 -0.43163490 -0.42620344
vn 0.79501065 0.43163490 -0.42620344
vn 0.79365426 0.48301605 0.36987620
vn 0.79365426 -0.48301605 0.36987620
vn 0.51389092 -0.61042393 -0.60274269
vn 0.51389092 0.61042393 -0.60274269
vn -0.48301605 0.79365426 0.36987620
vn 0.48301605 0.79365426 0.36987620
vn 0.61042393 0.51389092 -0.60274269
vn -0.61042393 0.51389092 -0.60274269
vn -0.79365426 -0.48301605 0.36987620
vn -0.79365426 0.48301605 0.36987620
vn -0.51389092 0.61042393 -0.60274269
vn -0.51389092 -0.61042393 -0.60274269
g Cube1_default
usemtl default
s 1
f 1//1 5//5 6//6 2//2
f 1//1 17//17 20//20 3//3
f 1//1 29//29 32//32 5//5
f 2//2 10//10 9//9 4//4
f 2//2 18//18 17//17 1//1
f 3//3 20//20 19//19 4//4
f 3//3 30//30 29//29 1//1
f 4//4 8//8 7//7 3//3
f 4//4 9//9 12//12 8//8
f 4//4 19//19 18//18 2//2
f 5//5 14//14 13//13 6//6
f 5//5 32//32 31//31 7//7
f 6//6 11//11 10//10 2//2
f 6//6 13//13 16//16 8//8
f 7//7 15//15 14//14 5//5
f 7//7 31//31 30//30 3//3
f 8//8 12//12 11//11 6//6
f 8//8 16//16 15//15 7//7
f 10//10 11//11 12//12 9//9
f 13//13 25//25 28//28 16//16
f 14//14 26//26 25//25 13//13
f 15//15 27//27 26//26 14//14
f 16//16 28//28 27//27 15//15
f 17//17 21//21 24//24 20//20
f 18//18 22//22 21//21 17//17
f 19//19 23//23 22//22 18//18
f 20//20 24//24 23//23 19//19
f 22//22 23//23 24//24 21//21
f 26//26 27//27 28//28 25//25
f 29//29 33//33 36//36 32//32
f 29//29 37//37 40//40 33//33
f 30//30 38//38 37//37 29//29
f 30//30 41//41 44//44 34//34
f 31//31 42//42 41//41 30//30
f 31//31 45//45 48//48 35//35
f 32//32 46//46 45//45 31//31
f 33//33 40//40 39//39 34//34
f 34//34 35//35 36//36 33//33
f 34//34 39//39 38//38 30//30
f 34//34 44//44 43//43 35//35
f 35//35 43//43 42//42 31//31
f 35//35 48//48 47//47 36//36
f 36//36 47//47 46//46 32//32
f 37//37 57//57 60//60 40//40
f 38//38 58//58 57//57 37//37
f 39//39 59//59 58//58 38//38
f 40//40 60//60 59//59 39//39
f 41//41 53//53 56//56 44//44
f 42//42 54//54 53//53 41//41
f 43//43 55//55 54//54 42//42
f 44//44 56//56 55//55 43//43
f 45//45 49//49 52//52 48//48
f 46//46 50//50 49//49 45//45
f 47//47 51//51 50//50 46//46
f 48//48 52//52 51//51 47//47
f 50//50 51//51 52//52 49//49
f 54//54 55//55 56//56 53//53
f 58//58 59//59 60//60 57//57
